<svg xmlns="http://www.w3.org/2000/svg" viewBox="0 0 400 260" role="img"><title>Top-down drawing of a stream section (synthetic reference illustration)</title><rect width="400" height="260" fill="#bbf7d0"/><circle cx="31" cy="41" r="26" fill="#166534" stroke="#14532d" stroke-width="2"/><circle cx="100" cy="41" r="26" fill="#166534" stroke="#14532d" stroke-width="2"/><circle cx="173" cy="35" r="26" fill="#166534" stroke="#14532d" stroke-width="2"/><circle cx="238" cy="44" r="26" fill="#166534" stroke="#14532d" stroke-width="2"/><circle cx="306" cy="37" r="26" fill="#166534" stroke="#14532d" stroke-width="2"/><circle cx="383" cy="40" r="26" fill="#166534" stroke="#14532d" stroke-width="2"/><circle cx="36" cy="224" r="26" fill="#166534" stroke="#14532d" stroke-width="2"/><circle cx="103" cy="224" r="26" fill="#166534" stroke="#14532d" stroke-width="2"/><circle cx="178" cy="222" r="26" fill="#166534" stroke="#14532d" stroke-width="2"/><circle cx="251" cy="224" r="26" fill="#166534" stroke="#14532d" stroke-width="2"/><circle cx="317" cy="225" r="26" fill="#166534" stroke="#14532d" stroke-width="2"/><circle cx="389" cy="220" r="26" fill="#166534" stroke="#14532d" stroke-width="2"/><rect x="0" y="76" width="400" height="16" fill="#8b6b43"/><path d="M346 92 l3 -9 l3 9" stroke="#3f6212" stroke-width="2" fill="none"/><path d="M189 92 l3 -9 l3 9" stroke="#3f6212" stroke-width="2" fill="none"/><path d="M288 92 l3 -9 l3 9" stroke="#3f6212" stroke-width="2" fill="none"/><path d="M352 92 l3 -9 l3 9" stroke="#3f6212" stroke-width="2" fill="none"/><path d="M286 92 l3 -9 l3 9" stroke="#3f6212" stroke-width="2" fill="none"/><path d="M368 92 l3 -9 l3 9" stroke="#3f6212" stroke-width="2" fill="none"/><path d="M158 92 l3 -9 l3 9" stroke="#3f6212" stroke-width="2" fill="none"/><path d="M320 92 l3 -9 l3 9" stroke="#3f6212" stroke-width="2" fill="none"/><path d="M178 92 l3 -9 l3 9" stroke="#3f6212" stroke-width="2" fill="none"/><path d="M374 92 l3 -9 l3 9" stroke="#3f6212" stroke-width="2" fill="none"/><path d="M352 92 l3 -9 l3 9" stroke="#3f6212" stroke-width="2" fill="none"/><path d="M39 92 l3 -9 l3 9" stroke="#3f6212" stroke-width="2" fill="none"/><path d="M54 92 l3 -9 l3 9" stroke="#3f6212" stroke-width="2" fill="none"/><path d="M87 92 l3 -9 l3 9" stroke="#3f6212" stroke-width="2" fill="none"/><path d="M386 92 l3 -9 l3 9" stroke="#3f6212" stroke-width="2" fill="none"/><path d="M174 92 l3 -9 l3 9" stroke="#3f6212" stroke-width="2" fill="none"/><path d="M251 92 l3 -9 l3 9" stroke="#3f6212" stroke-width="2" fill="none"/><path d="M120 92 l3 -9 l3 9" stroke="#3f6212" stroke-width="2" fill="none"/><path d="M203 92 l3 -9 l3 9" stroke="#3f6212" stroke-width="2" fill="none"/><path d="M154 92 l3 -9 l3 9" stroke="#3f6212" stroke-width="2" fill="none"/><path d="M140 92 l3 -9 l3 9" stroke="#3f6212" stroke-width="2" fill="none"/><path d="M234 92 l3 -9 l3 9" stroke="#3f6212" stroke-width="2" fill="none"/><path d="M234 92 l3 -9 l3 9" stroke="#3f6212" stroke-width="2" fill="none"/><path d="M362 92 l3 -9 l3 9" stroke="#3f6212" stroke-width="2" fill="none"/><path d="M273 92 l3 -9 l3 9" stroke="#3f6212" stroke-width="2" fill="none"/><path d="M372 92 l3 -9 l3 9" stroke="#3f6212" stroke-width="2" fill="none"/><rect x="0" y="168" width="400" height="16" fill="#8b6b43"/><path d="M343 184 l3 -9 l3 9" stroke="#3f6212" stroke-width="2" fill="none"/><path d="M396 184 l3 -9 l3 9" stroke="#3f6212" stroke-width="2" fill="none"/><path d="M269 184 l3 -9 l3 9" stroke="#3f6212" stroke-width="2" fill="none"/><path d="M65 184 l3 -9 l3 9" stroke="#3f6212" stroke-width="2" fill="none"/><path d="M344 184 l3 -9 l3 9" stroke="#3f6212" stroke-width="2" fill="none"/><path d="M386 184 l3 -9 l3 9" stroke="#3f6212" stroke-width="2" fill="none"/><path d="M362 184 l3 -9 l3 9" stroke="#3f6212" stroke-width="2" fill="none"/><path d="M228 184 l3 -9 l3 9" stroke="#3f6212" stroke-width="2" fill="none"/><path d="M286 184 l3 -9 l3 9" stroke="#3f6212" stroke-width="2" fill="none"/><path d="M84 184 l3 -9 l3 9" stroke="#3f6212" stroke-width="2" fill="none"/><path d="M333 184 l3 -9 l3 9" stroke="#3f6212" stroke-width="2" fill="none"/><path d="M229 184 l3 -9 l3 9" stroke="#3f6212" stroke-width="2" fill="none"/><path d="M114 184 l3 -9 l3 9" stroke="#3f6212" stroke-width="2" fill="none"/><path d="M25 184 l3 -9 l3 9" stroke="#3f6212" stroke-width="2" fill="none"/><path d="M342 184 l3 -9 l3 9" stroke="#3f6212" stroke-width="2" fill="none"/><path d="M396 184 l3 -9 l3 9" stroke="#3f6212" stroke-width="2" fill="none"/><path d="M35 184 l3 -9 l3 9" stroke="#3f6212" stroke-width="2" fill="none"/><path d="M320 184 l3 -9 l3 9" stroke="#3f6212" stroke-width="2" fill="none"/><path d="M164 184 l3 -9 l3 9" stroke="#3f6212" stroke-width="2" fill="none"/><path d="M60 184 l3 -9 l3 9" stroke="#3f6212" stroke-width="2" fill="none"/><path d="M118 184 l3 -9 l3 9" stroke="#3f6212" stroke-width="2" fill="none"/><path d="M308 184 l3 -9 l3 9" stroke="#3f6212" stroke-width="2" fill="none"/><path d="M349 184 l3 -9 l3 9" stroke="#3f6212" stroke-width="2" fill="none"/><path d="M18 184 l3 -9 l3 9" stroke="#3f6212" stroke-width="2" fill="none"/><path d="M246 184 l3 -9 l3 9" stroke="#3f6212" stroke-width="2" fill="none"/><path d="M18 184 l3 -9 l3 9" stroke="#3f6212" stroke-width="2" fill="none"/><rect x="0" y="92" width="400" height="76" fill="#38bdf8"/><path d="M10 106 H390" stroke="#e0f2fe" stroke-width="2" stroke-dasharray="40 18"/><path d="M10 124 H390" stroke="#e0f2fe" stroke-width="2" stroke-dasharray="40 18"/><path d="M10 142 H390" stroke="#e0f2fe" stroke-width="2" stroke-dasharray="40 18"/><path d="M10 160 H390" stroke="#e0f2fe" stroke-width="2" stroke-dasharray="40 18"/></svg>