<svg xmlns="http://www.w3.org/2000/svg" viewBox="0 0 400 260" role="img"><title>Top-down drawing of a stream section (synthetic reference illustration)</title><rect width="400" height="260" fill="#bbf7d0"/><circle cx="38" cy="43" r="26" fill="#166534" stroke="#14532d" stroke-width="2"/><circle cx="211" cy="45" r="26" fill="#166534" stroke="#14532d" stroke-width="2"/><circle cx="381" cy="45" r="26" fill="#166534" stroke="#14532d" stroke-width="2"/><circle cx="35" cy="227" r="26" fill="#166534" stroke="#14532d" stroke-width="2"/><circle cx="199" cy="227" r="26" fill="#166534" stroke="#14532d" stroke-width="2"/><circle cx="331" cy="222" r="26" fill="#166534" stroke="#14532d" stroke-width="2"/><rect x="0" y="76" width="400" height="16" fill="#a8a29e"/><circle cx="218" cy="85" r="2.0" fill="#78716c"/><circle cx="87" cy="80" r="4.7" fill="#78716c"/><circle cx="306" cy="79" r="4.4" fill="#78716c"/><circle cx="56" cy="86" r="2.4" fill="#78716c"/><circle cx="1" cy="90" r="2.6" fill="#78716c"/><circle cx="86" cy="92" r="4.6" fill="#78716c"/><circle cx="116" cy="91" r="3.6" fill="#78716c"/><circle cx="271" cy="79" r="4.8" fill="#78716c"/><circle cx="276" cy="91" r="4.7" fill="#78716c"/><circle cx="120" cy="82" r="2.5" fill="#78716c"/><circle cx="58" cy="77" r="2.9" fill="#78716c"/><circle cx="241" cy="76" r="4.0" fill="#78716c"/><circle cx="135" cy="81" r="4.5" fill="#78716c"/><circle cx="192" cy="81" r="3.4" fill="#78716c"/><circle cx="282" cy="77" r="4.9" fill="#78716c"/><circle cx="9" cy="88" r="4.5" fill="#78716c"/><circle cx="7" cy="89" r="3.1" fill="#78716c"/><circle cx="231" cy="76" r="2.1" fill="#78716c"/><circle cx="72" cy="91" r="2.6" fill="#78716c"/><circle cx="302" cy="91" r="4.8" fill="#78716c"/><circle cx="138" cy="82" r="3.6" fill="#78716c"/><circle cx="310" cy="78" r="4.2" fill="#78716c"/><circle cx="319" cy="90" r="2.1" fill="#78716c"/><circle cx="378" cy="77" r="3.0" fill="#78716c"/><circle cx="244" cy="91" r="3.0" fill="#78716c"/><circle cx="370" cy="85" r="2.9" fill="#78716c"/><circle cx="127" cy="79" r="2.2" fill="#78716c"/><circle cx="60" cy="87" r="5.0" fill="#78716c"/><circle cx="65" cy="77" r="5.0" fill="#78716c"/><circle cx="213" cy="82" r="2.7" fill="#78716c"/><circle cx="238" cy="89" r="3.4" fill="#78716c"/><circle cx="169" cy="77" r="4.7" fill="#78716c"/><circle cx="13" cy="84" r="4.5" fill="#78716c"/><circle cx="52" cy="88" r="4.8" fill="#78716c"/><circle cx="252" cy="89" r="2.3" fill="#78716c"/><circle cx="174" cy="78" r="4.5" fill="#78716c"/><circle cx="118" cy="83" r="5.0" fill="#78716c"/><circle cx="341" cy="92" r="3.4" fill="#78716c"/><circle cx="195" cy="88" r="3.4" fill="#78716c"/><circle cx="116" cy="82" r="2.4" fill="#78716c"/><circle cx="151" cy="92" r="4.9" fill="#78716c"/><circle cx="251" cy="84" r="3.0" fill="#78716c"/><circle cx="36" cy="80" r="4.3" fill="#78716c"/><circle cx="347" cy="82" r="4.4" fill="#78716c"/><circle cx="310" cy="87" r="4.0" fill="#78716c"/><circle cx="304" cy="82" r="4.1" fill="#78716c"/><circle cx="112" cy="84" r="4.3" fill="#78716c"/><circle cx="276" cy="81" r="4.8" fill="#78716c"/><circle cx="260" cy="85" r="2.0" fill="#78716c"/><circle cx="219" cy="80" r="4.0" fill="#78716c"/><circle cx="185" cy="89" r="3.9" fill="#78716c"/><circle cx="319" cy="82" r="3.9" fill="#78716c"/><circle cx="295" cy="89" r="3.1" fill="#78716c"/><circle cx="337" cy="90" r="4.1" fill="#78716c"/><circle cx="390" cy="91" r="3.6" fill="#78716c"/><circle cx="212" cy="79" r="4.5" fill="#78716c"/><circle cx="375" cy="84" r="4.1" fill="#78716c"/><circle cx="288" cy="88" r="2.5" fill="#78716c"/><circle cx="312" cy="85" r="4.0" fill="#78716c"/><circle cx="168" cy="86" r="4.3" fill="#78716c"/><path d="M0 76 l7 16" stroke="#44403c" stroke-width="0.8"/><path d="M7 76 l-7 16" stroke="#44403c" stroke-width="0.8"/><path d="M14 76 l7 16" stroke="#44403c" stroke-width="0.8"/><path d="M21 76 l-7 16" stroke="#44403c" stroke-width="0.8"/><path d="M28 76 l7 16" stroke="#44403c" stroke-width="0.8"/><path d="M35 76 l-7 16" stroke="#44403c" stroke-width="0.8"/><path d="M42 76 l7 16" stroke="#44403c" stroke-width="0.8"/><path d="M49 76 l-7 16" stroke="#44403c" stroke-width="0.8"/><path d="M56 76 l7 16" stroke="#44403c" stroke-width="0.8"/><path d="M63 76 l-7 16" stroke="#44403c" stroke-width="0.8"/><path d="M70 76 l7 16" stroke="#44403c" stroke-width="0.8"/><path d="M77 76 l-7 16" stroke="#44403c" stroke-width="0.8"/><path d="M84 76 l7 16" stroke="#44403c" stroke-width="0.8"/><path d="M91 76 l-7 16" stroke="#44403c" stroke-width="0.8"/><path d="M98 76 l7 16" stroke="#44403c" stroke-width="0.8"/><path d="M105 76 l-7 16" stroke="#44403c" stroke-width="0.8"/><path d="M112 76 l7 16" stroke="#44403c" stroke-width="0.8"/><path d="M119 76 l-7 16" stroke="#44403c" stroke-width="0.8"/><path d="M126 76 l7 16" stroke="#44403c" stroke-width="0.8"/><path d="M133 76 l-7 16" stroke="#44403c" stroke-width="0.8"/><path d="M140 76 l7 16" stroke="#44403c" stroke-width="0.8"/><path d="M147 76 l-7 16" stroke="#44403c" stroke-width="0.8"/><path d="M154 76 l7 16" stroke="#44403c" stroke-width="0.8"/><path d="M161 76 l-7 16" stroke="#44403c" stroke-width="0.8"/><path d="M168 76 l7 16" stroke="#44403c" stroke-width="0.8"/><path d="M175 76 l-7 16" stroke="#44403c" stroke-width="0.8"/><path d="M182 76 l7 16" stroke="#44403c" stroke-width="0.8"/><path d="M189 76 l-7 16" stroke="#44403c" stroke-width="0.8"/><path d="M196 76 l7 16" stroke="#44403c" stroke-width="0.8"/><path d="M203 76 l-7 16" stroke="#44403c" stroke-width="0.8"/><path d="M210 76 l7 16" stroke="#44403c" stroke-width="0.8"/><path d="M217 76 l-7 16" stroke="#44403c" stroke-width="0.8"/><path d="M224 76 l7 16" stroke="#44403c" stroke-width="0.8"/><path d="M231 76 l-7 16" stroke="#44403c" stroke-width="0.8"/><path d="M238 76 l7 16" stroke="#44403c" stroke-width="0.8"/><path d="M245 76 l-7 16" stroke="#44403c" stroke-width="0.8"/><path d="M252 76 l7 16" stroke="#44403c" stroke-width="0.8"/><path d="M259 76 l-7 16" stroke="#44403c" stroke-width="0.8"/><path d="M266 76 l7 16" stroke="#44403c" stroke-width="0.8"/><path d="M273 76 l-7 16" stroke="#44403c" stroke-width="0.8"/><path d="M280 76 l7 16" stroke="#44403c" stroke-width="0.8"/><path d="M287 76 l-7 16" stroke="#44403c" stroke-width="0.8"/><path d="M294 76 l7 16" stroke="#44403c" stroke-width="0.8"/><path d="M301 76 l-7 16" stroke="#44403c" stroke-width="0.8"/><path d="M308 76 l7 16" stroke="#44403c" stroke-width="0.8"/><path d="M315 76 l-7 16" stroke="#44403c" stroke-width="0.8"/><path d="M322 76 l7 16" stroke="#44403c" stroke-width="0.8"/><path d="M329 76 l-7 16" stroke="#44403c" stroke-width="0.8"/><path d="M336 76 l7 16" stroke="#44403c" stroke-width="0.8"/><path d="M343 76 l-7 16" stroke="#44403c" stroke-width="0.8"/><path d="M350 76 l7 16" stroke="#44403c" stroke-width="0.8"/><path d="M357 76 l-7 16" stroke="#44403c" stroke-width="0.8"/><path d="M364 76 l7 16" stroke="#44403c" stroke-width="0.8"/><path d="M371 76 l-7 16" stroke="#44403c" stroke-width="0.8"/><path d="M378 76 l7 16" stroke="#44403c" stroke-width="0.8"/><path d="M385 76 l-7 16" stroke="#44403c" stroke-width="0.8"/><path d="M392 76 l7 16" stroke="#44403c" stroke-width="0.8"/><path d="M399 76 l-7 16" stroke="#44403c" stroke-width="0.8"/><rect x="0" y="168" width="400" height="16" fill="#a8a29e"/><circle cx="255" cy="180" r="2.1" fill="#78716c"/><circle cx="64" cy="175" r="4.0" fill="#78716c"/><circle cx="88" cy="179" r="3.9" fill="#78716c"/><circle cx="17" cy="176" r="2.7" fill="#78716c"/><circle cx="22" cy="170" r="3.0" fill="#78716c"/><circle cx="73" cy="171" r="2.1" fill="#78716c"/><circle cx="186" cy="174" r="3.8" fill="#78716c"/><circle cx="236" cy="172" r="4.7" fill="#78716c"/><circle cx="0" cy="174" r="2.8" fill="#78716c"/><circle cx="164" cy="170" r="4.5" fill="#78716c"/><circle cx="150" cy="169" r="3.8" fill="#78716c"/><circle cx="38" cy="177" r="3.0" fill="#78716c"/><circle cx="232" cy="183" r="4.5" fill="#78716c"/><circle cx="168" cy="181" r="3.9" fill="#78716c"/><circle cx="148" cy="170" r="3.8" fill="#78716c"/><circle cx="226" cy="183" r="4.9" fill="#78716c"/><circle cx="243" cy="174" r="4.7" fill="#78716c"/><circle cx="0" cy="170" r="3.7" fill="#78716c"/><circle cx="246" cy="170" r="3.9" fill="#78716c"/><circle cx="357" cy="174" r="3.3" fill="#78716c"/><circle cx="91" cy="173" r="4.9" fill="#78716c"/><circle cx="152" cy="183" r="4.7" fill="#78716c"/><circle cx="238" cy="172" r="4.9" fill="#78716c"/><circle cx="199" cy="175" r="3.0" fill="#78716c"/><circle cx="394" cy="176" r="2.9" fill="#78716c"/><circle cx="191" cy="170" r="3.9" fill="#78716c"/><circle cx="177" cy="173" r="4.3" fill="#78716c"/><circle cx="331" cy="168" r="3.6" fill="#78716c"/><circle cx="110" cy="183" r="4.3" fill="#78716c"/><circle cx="98" cy="172" r="2.5" fill="#78716c"/><circle cx="396" cy="173" r="3.8" fill="#78716c"/><circle cx="190" cy="178" r="3.8" fill="#78716c"/><circle cx="297" cy="170" r="4.3" fill="#78716c"/><circle cx="120" cy="177" r="3.0" fill="#78716c"/><circle cx="119" cy="176" r="3.4" fill="#78716c"/><circle cx="144" cy="180" r="3.8" fill="#78716c"/><circle cx="15" cy="172" r="3.4" fill="#78716c"/><circle cx="367" cy="182" r="3.6" fill="#78716c"/><circle cx="6" cy="180" r="3.3" fill="#78716c"/><circle cx="230" cy="179" r="3.9" fill="#78716c"/><circle cx="193" cy="183" r="3.2" fill="#78716c"/><circle cx="157" cy="182" r="2.6" fill="#78716c"/><circle cx="119" cy="181" r="2.2" fill="#78716c"/><circle cx="335" cy="179" r="3.3" fill="#78716c"/><circle cx="115" cy="180" r="4.7" fill="#78716c"/><circle cx="57" cy="176" r="3.6" fill="#78716c"/><circle cx="199" cy="173" r="2.5" fill="#78716c"/><circle cx="234" cy="181" r="2.2" fill="#78716c"/><circle cx="92" cy="181" r="4.4" fill="#78716c"/><circle cx="265" cy="168" r="4.2" fill="#78716c"/><circle cx="391" cy="184" r="4.1" fill="#78716c"/><circle cx="20" cy="181" r="2.7" fill="#78716c"/><circle cx="258" cy="183" r="4.1" fill="#78716c"/><circle cx="54" cy="173" r="4.8" fill="#78716c"/><circle cx="60" cy="178" r="3.2" fill="#78716c"/><circle cx="64" cy="178" r="2.1" fill="#78716c"/><circle cx="43" cy="174" r="2.2" fill="#78716c"/><circle cx="23" cy="177" r="4.2" fill="#78716c"/><circle cx="351" cy="170" r="3.3" fill="#78716c"/><circle cx="126" cy="178" r="3.5" fill="#78716c"/><path d="M0 168 l7 16" stroke="#44403c" stroke-width="0.8"/><path d="M7 168 l-7 16" stroke="#44403c" stroke-width="0.8"/><path d="M14 168 l7 16" stroke="#44403c" stroke-width="0.8"/><path d="M21 168 l-7 16" stroke="#44403c" stroke-width="0.8"/><path d="M28 168 l7 16" stroke="#44403c" stroke-width="0.8"/><path d="M35 168 l-7 16" stroke="#44403c" stroke-width="0.8"/><path d="M42 168 l7 16" stroke="#44403c" stroke-width="0.8"/><path d="M49 168 l-7 16" stroke="#44403c" stroke-width="0.8"/><path d="M56 168 l7 16" stroke="#44403c" stroke-width="0.8"/><path d="M63 168 l-7 16" stroke="#44403c" stroke-width="0.8"/><path d="M70 168 l7 16" stroke="#44403c" stroke-width="0.8"/><path d="M77 168 l-7 16" stroke="#44403c" stroke-width="0.8"/><path d="M84 168 l7 16" stroke="#44403c" stroke-width="0.8"/><path d="M91 168 l-7 16" stroke="#44403c" stroke-width="0.8"/><path d="M98 168 l7 16" stroke="#44403c" stroke-width="0.8"/><path d="M105 168 l-7 16" stroke="#44403c" stroke-width="0.8"/><path d="M112 168 l7 16" stroke="#44403c" stroke-width="0.8"/><path d="M119 168 l-7 16" stroke="#44403c" stroke-width="0.8"/><path d="M126 168 l7 16" stroke="#44403c" stroke-width="0.8"/><path d="M133 168 l-7 16" stroke="#44403c" stroke-width="0.8"/><path d="M140 168 l7 16" stroke="#44403c" stroke-width="0.8"/><path d="M147 168 l-7 16" stroke="#44403c" stroke-width="0.8"/><path d="M154 168 l7 16" stroke="#44403c" stroke-width="0.8"/><path d="M161 168 l-7 16" stroke="#44403c" stroke-width="0.8"/><path d="M168 168 l7 16" stroke="#44403c" stroke-width="0.8"/><path d="M175 168 l-7 16" stroke="#44403c" stroke-width="0.8"/><path d="M182 168 l7 16" stroke="#44403c" stroke-width="0.8"/><path d="M189 168 l-7 16" stroke="#44403c" stroke-width="0.8"/><path d="M196 168 l7 16" stroke="#44403c" stroke-width="0.8"/><path d="M203 168 l-7 16" stroke="#44403c" stroke-width="0.8"/><path d="M210 168 l7 16" stroke="#44403c" stroke-width="0.8"/><path d="M217 168 l-7 16" stroke="#44403c" stroke-width="0.8"/><path d="M224 168 l7 16" stroke="#44403c" stroke-width="0.8"/><path d="M231 168 l-7 16" stroke="#44403c" stroke-width="0.8"/><path d="M238 168 l7 16" stroke="#44403c" stroke-width="0.8"/><path d="M245 168 l-7 16" stroke="#44403c" stroke-width="0.8"/><path d="M252 168 l7 16" stroke="#44403c" stroke-width="0.8"/><path d="M259 168 l-7 16" stroke="#44403c" stroke-width="0.8"/><path d="M266 168 l7 16" stroke="#44403c" stroke-width="0.8"/><path d="M273 168 l-7 16" stroke="#44403c" stroke-width="0.8"/><path d="M280 168 l7 16" stroke="#44403c" stroke-width="0.8"/><path d="M287 168 l-7 16" stroke="#44403c" stroke-width="0.8"/><path d="M294 168 l7 16" stroke="#44403c" stroke-width="0.8"/><path d="M301 168 l-7 16" stroke="#44403c" stroke-width="0.8"/><path d="M308 168 l7 16" stroke="#44403c" stroke-width="0.8"/><path d="M315 168 l-7 16" stroke="#44403c" stroke-width="0.8"/><path d="M322 168 l7 16" stroke="#44403c" stroke-width="0.8"/><path d="M329 168 l-7 16" stroke="#44403c" stroke-width="0.8"/><path d="M336 168 l7 16" stroke="#44403c" stroke-width="0.8"/><path d="M343 168 l-7 16" stroke="#44403c" stroke-width="0.8"/><path d="M350 168 l7 16" stroke="#44403c" stroke-width="0.8"/><path d="M357 168 l-7 16" stroke="#44403c" stroke-width="0.8"/><path d="M364 168 l7 16" stroke="#44403c" stroke-width="0.8"/><path d="M371 168 l-7 16" stroke="#44403c" stroke-width="0.8"/><path d="M378 168 l7 16" stroke="#44403c" stroke-width="0.8"/><path d="M385 168 l-7 16" stroke="#44403c" stroke-width="0.8"/><path d="M392 168 l7 16" stroke="#44403c" stroke-width="0.8"/><path d="M399 168 l-7 16" stroke="#44403c" stroke-width="0.8"/><rect x="0" y="92" width="400" height="76" fill="#38bdf8"/><path d="M10 106 H390" stroke="#e0f2fe" stroke-width="2" stroke-dasharray="40 18"/><path d="M10 124 H390" stroke="#e0f2fe" stroke-width="2" stroke-dasharray="40 18"/><path d="M10 142 H390" stroke="#e0f2fe" stroke-width="2" stroke-dasharray="40 18"/><path d="M10 160 H390" stroke="#e0f2fe" stroke-width="2" stroke-dasharray="40 18"/></svg>